Coordinates
version=1
nRows=18
nColumns=63
inDegrees=yes

Units are S.I. units (second, meters, Newtons, ...)
If the header above contains a line with 'inDegrees', this indicates whether rotational values are in degrees (yes) or radians (no).

endheader
time	pelvis_tilt	pelvis_list	pelvis_rotation	pelvis_tx	pelvis_ty	pelvis_tz	hip_flexion_r	hip_adduction_r	hip_rotation_r	knee_angle_r	knee_angle_r_beta	ankle_angle_r	subtalar_angle_r	mtp_angle_r	hip_flexion_l	hip_adduction_l	hip_rotation_l	knee_angle_l	knee_angle_l_beta	ankle_angle_l	subtalar_angle_l	mtp_angle_l	L5_S1_Flex_Ext	L5_S1_Lat_Bending	L5_S1_axial_rotation	L4_L5_Flex_Ext	L4_L5_Lat_Bending	L4_L5_axial_rotation	L3_L4_Flex_Ext	L3_L4_Lat_Bending	L3_L4_axial_rotation	L2_L3_Flex_Ext	L2_L3_Lat_Bending	L2_L3_axial_rotation	L1_L2_Flex_Ext	L1_L2_Lat_Bending	L1_L2_axial_rotation	L1_T12_Flex_Ext	L1_T12_Lat_Bending	L1_T12_axial_rotation	Abs_r3	Abs_r2	Abs_r1	Abs_t1	Abs_t2	neck_flexion	neck_bending	neck_rotation	arm_flex_r	arm_add_r	arm_rot_r	elbow_flex_r	pro_sup_r	wrist_flex_r	wrist_dev_r	arm_flex_l	arm_add_l	arm_rot_l	elbow_flex_l	pro_sup_l	wrist_flex_l	wrist_dev_l
5.019231	4.185151	-12.281448	116.554954	0.255517	0.377851	0.630485	10.374977	2.817090	-25.910198	19.967673	0.348502	26.720740	-3.242898	0.000000	18.030702	-11.297434	-7.491617	28.121996	0.490821	22.491039	12.408038	0.000000	0.060297	0.679027	1.842504	0.111977	0.903106	1.957661	0.099062	1.650986	1.957661	0.068913	1.650986	1.612191	0.055992	1.384671	1.497035	0.034454	1.051813	1.381878	0.430694	7.681287	10.247455	0.000000	0.000000	14.078690	-11.130102	-16.698730	-23.292652	-39.236404	-4.813521	133.999704	63.569827	34.120673	16.029985	16.276495	-11.585905	35.413031	137.288561	88.613654	-4.399711	9.785333
5.038462	4.004578	-12.635196	115.254894	0.256075	0.377835	0.628757	10.523893	2.632152	-25.230267	19.761119	0.344897	27.036133	-2.451944	0.000000	17.572254	-11.045651	-8.056988	27.554635	0.480919	22.245767	10.382163	0.000000	0.067536	0.696209	1.972527	0.125420	0.925958	2.095810	0.110954	1.692763	2.095810	0.077186	1.692763	1.725961	0.062714	1.419710	1.602678	0.038590	1.078428	1.479395	0.482400	7.875656	10.970601	0.000000	0.000000	15.128178	-11.083349	-16.686395	-25.969905	-37.909347	-7.307134	138.248386	64.178991	33.030705	15.159699	17.516461	-12.168389	36.636809	138.208362	87.979048	-4.381232	11.759513
5.057692	3.681063	-13.054075	113.851445	0.257045	0.377793	0.627186	10.662925	2.301416	-24.815890	19.534634	0.340944	27.218523	-1.527784	0.000000	17.153097	-10.631978	-8.526321	27.015288	0.471506	21.753266	8.006801	0.000000	0.072242	0.699671	2.127263	0.134161	0.930562	2.260217	0.118687	1.701179	2.260217	0.082566	1.701179	1.861355	0.067084	1.426768	1.728401	0.041279	1.083790	1.595447	0.516019	7.914815	11.831197	0.000000	0.000000	16.090540	-10.745843	-16.415189	-26.651816	-36.516228	-8.877699	141.407109	65.696529	30.367937	13.901566	17.739688	-12.857259	37.157399	139.171408	87.180637	-4.296923	13.083597
5.076923	3.220123	-13.529997	112.359210	0.258393	0.377701	0.625710	10.790655	1.834226	-24.698040	19.289289	0.336662	27.341891	-0.417876	0.000000	16.767782	-10.078698	-8.909850	26.481780	0.462194	21.163176	5.530909	0.000000	0.076351	0.690600	2.291141	0.141791	0.918498	2.434338	0.125437	1.679124	2.434338	0.087261	1.679124	2.004749	0.070899	1.408271	1.861552	0.043627	1.069739	1.718356	0.545366	7.812202	12.742641	0.000000	0.000000	16.929193	-10.208059	-15.873662	-25.409300	-35.004369	-9.454280	143.285507	67.774652	26.412484	12.159562	16.965315	-13.616219	36.970146	140.216316	86.370492	-4.205093	13.901139
5.096154	2.615076	-14.042350	110.804031	0.260104	0.377601	0.624357	10.900939	1.225951	-24.858670	19.034478	0.332214	27.430475	0.875286	0.000000	16.403527	-9.396279	-9.257452	25.932082	0.452600	20.621538	3.212925	0.000000	0.081219	0.667240	2.457956	0.150833	0.887429	2.611579	0.133436	1.622326	2.611579	0.092826	1.622326	2.150712	0.075420	1.360635	1.997090	0.046409	1.033554	1.843467	0.580143	7.547947	13.670417	0.000000	0.000000	17.554450	-9.522656	-15.156456	-22.434240	-33.340374	-9.110180	143.700346	69.856151	21.669799	10.152884	15.342460	-14.464994	36.256532	141.326569	85.650441	-4.133746	14.212870
5.115385	1.884526	-14.522814	109.236567	0.262108	0.377601	0.623172	10.945586	0.511745	-25.309027	18.767790	0.327560	27.476510	2.313422	0.000000	16.025890	-8.625304	-9.571730	25.361678	0.442645	20.218048	1.257402	0.000000	0.084918	0.633013	2.621871	0.157701	0.841907	2.785738	0.139511	1.539108	2.785738	0.097053	1.539108	2.294137	0.078855	1.290840	2.130270	0.048522	0.980537	1.966403	0.606559	7.160770	14.582059	0.000000	0.000000	17.860565	-8.749882	-14.370568	-17.901343	-31.558430	-7.836121	142.481305	71.571292	16.517305	8.206372	13.117234	-15.378264	35.238053	142.442359	85.069919	-3.862409	13.813051
5.134615	1.011201	-14.980098	107.630952	0.264409	0.377701	0.622068	10.932890	-0.329110	-25.949146	18.495863	0.322814	27.534840	3.878267	0.000000	15.600348	-7.756183	-9.926566	24.724790	0.431529	19.982037	-0.208391	0.000000	0.090302	0.582461	2.777412	0.167699	0.774673	2.951000	0.148357	1.416196	2.951000	0.103206	1.416196	2.430235	0.083854	1.187755	2.256647	0.051598	0.902232	2.083059	0.645016	6.588917	15.447130	0.000000	0.000000	17.797257	-7.989451	-13.663289	-12.007847	-29.600447	-5.478996	139.549736	72.315215	11.141568	6.771907	10.554068	-16.385397	34.027431	143.731700	84.645062	-3.517272	12.963676
5.153846	0.053438	-15.392529	106.037019	0.266848	0.377903	0.620990	10.854086	-1.238264	-26.776348	18.205987	0.317754	27.596536	5.516939	0.000000	15.137192	-6.846821	-10.285788	24.042478	0.419620	19.913041	-1.117182	0.000000	0.098993	0.524073	2.891857	0.183840	0.697017	3.072599	0.162636	1.274231	3.072599	0.113139	1.274231	2.530375	0.091925	1.068690	2.349634	0.056565	0.811789	2.168893	0.707098	5.928420	16.083643	0.000000	0.000000	17.436783	-7.358018	-12.913274	-4.919432	-27.450498	-1.802029	134.955291	71.787727	5.659015	5.864008	7.865917	-17.470443	32.494121	145.376595	84.397343	-3.218540	12.056600
5.173077	-0.933684	-15.743930	104.482095	0.269264	0.378230	0.619925	10.716447	-2.165450	-27.716553	17.903015	0.312467	27.605213	7.127754	0.000000	14.644238	-5.944705	-10.627872	23.337430	0.407315	19.944111	-1.477099	0.000000	0.111332	0.465161	2.952314	0.206754	0.618663	3.136834	0.182907	1.130991	3.136834	0.127241	1.130991	2.583275	0.103383	0.948555	2.398755	0.063615	0.720534	2.214236	0.795231	5.261989	16.419887	0.000000	0.000000	16.831729	-6.985527	-12.100788	3.014143	-25.220533	3.133487	129.061351	70.258519	0.054249	5.537600	5.379185	-18.627625	30.620105	147.290341	84.304584	-2.989144	11.138575
5.192308	-1.883408	-16.018361	103.020440	0.271481	0.378707	0.618915	10.525895	-3.048821	-28.714311	17.590529	0.307013	27.474436	8.576154	0.000000	14.147831	-5.107252	-10.909864	22.656819	0.395436	19.941149	-1.336615	0.000000	0.126758	0.413944	2.950825	0.235403	0.550545	3.135251	0.208251	1.006463	3.135251	0.144872	1.006463	2.581972	0.117708	0.844114	2.397545	0.072430	0.641199	2.213119	0.905423	4.682614	16.411602	0.000000	0.000000	16.051967	-6.957386	-11.193396	11.335627	-23.074746	9.009866	122.332873	68.730862	-5.272401	5.894959	3.412721	-19.810477	28.474186	149.206298	84.358345	-2.679574	10.158147
5.211538	-2.727201	-16.196386	101.702226	0.273359	0.379364	0.618031	10.290328	-3.820072	-29.689164	17.270372	0.301425	27.133591	9.737406	0.000000	13.671591	-4.397071	-11.114787	22.044242	0.384745	19.740358	-0.787864	0.000000	0.143549	0.378640	2.893244	0.266584	0.503591	3.074071	0.235836	0.920625	3.074071	0.164062	0.920625	2.531588	0.133299	0.772122	2.350760	0.082024	0.586513	2.169933	1.025353	4.283248	16.091353	0.000000	0.000000	15.169177	-7.296700	-10.159885	19.497996	-21.190791	15.347924	115.273695	67.649539	-9.879535	6.895542	2.247780	-20.887540	26.209257	150.690994	84.454203	-2.144565	9.043204
5.230769	-3.420549	-16.270509	100.589237	0.274760	0.380201	0.617340	10.011872	-4.459817	-30.676066	16.960071	0.296009	26.629479	10.683002	0.000000	13.242410	-3.841742	-11.193960	21.546472	0.376057	19.216042	0.046763	0.000000	0.159177	0.362306	2.791609	0.295607	0.481866	2.966085	0.261511	0.880910	2.966085	0.181923	0.880910	2.442658	0.147811	0.738814	2.268183	0.090954	0.561211	2.093707	1.136983	4.098473	15.526095	0.000000	0.000000	14.236646	-7.980501	-9.118034	26.899027	-19.627340	21.501402	108.382268	66.933446	-13.351340	8.490314	2.101641	-21.587272	23.833173	151.158812	84.632335	-1.309155	8.001081
5.250000	-3.945751	-16.253385	99.677475	0.275728	0.381105	0.616851	9.731012	-4.931850	-31.454373	16.687470	0.291251	26.017053	11.237755	0.000000	12.886127	-3.470310	-11.200284	21.208396	0.370156	18.375158	1.134905	0.000000	0.172555	0.362919	2.658903	0.320451	0.482682	2.825084	0.283490	0.882401	2.825084	0.197213	0.882401	2.326540	0.160234	0.740064	2.160359	0.098598	0.562162	1.994177	1.232542	4.105412	14.788021	0.000000	0.000000	13.322088	-8.889155	-8.098374	33.037385	-18.271657	26.826269	102.086241	66.564175	-15.250240	10.635861	3.215200	-21.718568	21.457771	149.890737	84.696521	-0.424271	7.048524
5.269231	-4.334337	-16.178010	98.992863	0.276321	0.381907	0.616516	9.485308	-5.258480	-31.898843	16.488466	0.287778	25.383036	11.282036	0.000000	12.629117	-3.258556	-11.178945	21.050561	0.367402	17.303062	2.551302	0.000000	0.184445	0.372118	2.486697	0.342532	0.494917	2.642115	0.303024	0.904767	2.642115	0.210802	0.904767	2.175860	0.171275	0.758822	2.020441	0.105392	0.576410	1.865023	1.317469	4.209470	13.830261	0.000000	0.000000	12.486484	-9.905342	-7.081050	37.596942	-16.990536	30.949297	96.718117	66.073096	-15.586597	13.035371	5.711615	-21.260547	19.331683	146.392413	84.568146	0.265842	6.125632
5.288462	-4.577802	-16.051340	98.530780	0.276654	0.382521	0.616377	9.292297	-5.448223	-32.082723	16.417934	0.286547	24.807477	11.007881	0.000000	12.493306	-3.211594	-11.100704	21.116845	0.368558	16.120168	4.094143	0.000000	0.194119	0.384871	2.307494	0.360498	0.511878	2.451712	0.318918	0.935774	2.451712	0.221858	0.935774	2.019057	0.180259	0.784828	1.874839	0.110919	0.596165	1.730621	1.386570	4.353733	12.833589	0.000000	0.000000	11.690353	-10.825509	-6.328218	40.385431	-15.618440	33.370944	92.509460	65.752269	-13.929760	15.162699	9.681933	-20.167989	17.830768	140.467742	84.324158	0.701265	5.411524
5.307692	-4.709512	-15.878183	98.285036	0.276842	0.382910	0.616431	9.157153	-5.505023	-31.850117	16.481735	0.287661	24.302157	10.207250	0.000000	12.458947	-3.307674	-11.037267	21.391265	0.373348	14.977997	5.788831	0.000000	0.200294	0.394075	2.157164	0.371965	0.524120	2.291987	0.329062	0.958155	2.291987	0.228915	0.958155	1.887518	0.185993	0.803598	1.752696	0.114448	0.610423	1.617873	1.430677	4.457859	11.997498	0.000000	0.000000	10.922128	-11.528199	-6.061061	41.262366	-14.214312	33.909355	89.743243	65.432185	-11.086702	16.157524	15.031895	-18.426528	17.399414	132.214180	83.958311	0.823340	4.708778
5.326923	-4.744033	-15.660665	98.230074	0.276955	0.383101	0.616683	9.075848	-5.442217	-31.202167	16.677491	0.291077	23.896269	8.923609	0.000000	12.502162	-3.524627	-11.013348	21.842067	0.381216	13.996125	7.517641	0.000000	0.201778	0.397822	2.074150	0.374722	0.529103	2.203784	0.331501	0.967265	2.203784	0.230612	0.967265	1.814881	0.187371	0.811239	1.685247	0.115296	0.616226	1.555612	1.441281	4.500243	11.535799	0.000000	0.000000	10.191209	-11.914311	-6.391167	40.205413	-12.910347	32.645647	88.753632	65.198692	-8.601725	16.066220	21.551827	-16.108474	18.216654	122.062853	83.629711	0.572335	3.890085
5.346154	-4.685872	-15.418665	98.369561	0.277001	0.383145	0.617039	9.041922	-5.262297	-30.156745	16.969979	0.296182	23.558427	7.148609	0.000000	12.614125	-3.836192	-11.000937	22.421146	0.391323	13.229665	9.125930	0.000000	0.200981	0.395130	2.069523	0.373242	0.525523	2.198868	0.330192	0.960718	2.198868	0.229701	0.960718	1.810833	0.186631	0.805749	1.681488	0.114841	0.612056	1.552142	1.435587	4.469787	11.510067	0.000000	0.000000	9.533468	-11.900684	-7.319478	37.486847	-11.886115	30.008827	89.712474	65.363137	-7.770465	15.478072	28.884826	-13.419344	20.143982	110.732984	83.419373	0.065575	3.176605
